<svg xmlns="http://www.w3.org/2000/svg" viewBox="0 0 77.5 43.7">
  <g fill="#010101">
    <path d="M7.6 20.8H0V.3h7.6c6.7 0 11.6 3.6 11.6 10.2 0 6.8-5.3 10.3-11.6 10.3zm0-15.1h-1v9.7h1.1c3.1 0 4.9-2 4.9-4.9-.1-3.1-2.1-4.8-5-4.8zM33.8 20.8l-1.1-3.7h-6l-1.1 3.7h-6.5L26.2.4h7.4l7.1 20.4h-6.9zM29.7 6.9l-1.5 5.2h3.1l-1.6-5.2zM51.1 21.1c-6.2 0-10.7-4.4-10.7-10.5S45.1 0 51.2 0c4 0 6.3 1.5 8 3.2l-4.1 4.1c-1.1-1.1-2.2-1.8-4-1.8-2.3 0-3.9 2-3.9 4.9 0 3.7 1.7 5.5 4.3 5.5 2 0 3.2-.9 3.8-2.3h-4.5V8.9h10.9c0 8.3-4.2 12.2-10.6 12.2zM19.4 43.4h-6.8L5.9 22.9h7l3.2 12.7 3.2-12.7H26l-6.6 20.5zM27.9 43.4V22.9h12.5v5.2h-5.9v2.5h5v5.1h-5v2.5h6.2v5.2H27.9zM53.9 43.4l-3.8-7.3v7.3h-6.6V22.9H52c4.8 0 7.7 2.2 7.7 6.3 0 2.7-1.4 4.8-3.5 5.7l4.9 8.5h-7.2zm-2.7-15.6h-1.1v3.9h1.1c1.6 0 2.4-.7 2.4-2 0-1.4-.9-1.9-2.4-1.9zM69.5 43.7c-3.3 0-6.2-1.2-8.1-2.9l2.7-4.3c1.9 1.5 3.6 2.2 5.3 2.2 1 0 1.7-.4 1.7-1.1 0-1-.8-1.3-3.3-2.1-3.7-1.1-5.6-2.7-5.6-6.1 0-4.4 3.5-6.8 8.4-6.8 2.7 0 5.3 1 6.6 2.1l-2.7 4.5c-1.4-1-2.7-1.5-4.2-1.5-1.3 0-1.8.6-1.8 1.1 0 .6.5 1 3.2 1.8 3.7 1.1 5.7 2.5 5.7 6.3.1 4.1-2.9 6.8-7.9 6.8z"/>
  </g>
</svg>
