<svg xmlns="http://www.w3.org/2000/svg" viewBox="0 0 58.5 29.3">
  <g fill="#E66263">
    <path d="M4.5 16.1c-.2 1.5-.4 3-.5 4.5-.2 1.5-.3 2.8-.4 4.2-.1 1.3-.2 2.5-.3 3.5-.1.4-.2.7-.3.9-.1.2-.3.2-.6 0-.3-.1-.6-.3-.9-.5-.3-.2-.6-.4-.8-.6-.3-.3-.5-.6-.6-.9-.1-.4-.1-.9-.1-1.6 0-.9.1-2 .2-3.3.1-1.3.2-2.6.3-4.1.1-1.5.3-3 .5-4.5s.3-3 .5-4.5c.2-1.4.3-2.8.5-4.1.2-1.3.3-2.4.4-3.3.1-.7.3-1.1.5-1.2.2-.2.5-.2.9-.1.5.2 1 .3 1.4.5.4.2.8.4 1.2.7.3.2.5.4.6.6.2.2.3.4.4.7.1.2.1.5.2.8 0 .3.1.6.1 1v.6c0 .3 0 .7.1 1.4.1.6.2 1.6.3 2.8.1 1.2.2 2.9.4 5.1.2-.8.4-1.6.7-2.5.2-.9.5-1.8.8-2.8.3-.9.5-1.9.8-2.8.3-.9.5-1.8.8-2.6.2-.9.5-1.6.6-2.2.2-.6.4-1 .6-1.3.2-.3.4-.5.7-.5.2 0 .6 0 .9.2.5.2.9.5 1.5.7.5.3 1 .6 1.5 1 .3.3.6.6.7.9.1.4.1.8 0 1.5-.1 1-.3 2.1-.4 3.4-.2 1.3-.3 2.7-.5 4.1-.2 1.5-.4 3-.5 4.5-.2 1.5-.3 3-.5 4.4-.2 1.4-.3 2.7-.4 4-.1 1.2-.2 2.3-.3 3.1-.1.5-.2.8-.3 1-.1.2-.3.2-.7.1-.3-.1-.6-.3-.9-.5-.3-.2-.6-.4-.8-.6-.3-.3-.5-.6-.6-1-.1-.4-.1-.9-.1-1.5 0-.7.1-1.6.2-2.7s.2-2.3.3-3.6c.1-1.3.3-2.7.4-4.1.2-1.4.3-2.7.5-4-.3 1.1-.7 2.4-1.1 3.7s-.8 2.7-1.1 4.1c-.4 1.3-.7 2.6-1 3.9-.5 1.4-.7 2.4-.9 3.2-.1.5-.2.9-.3 1-.1.2-.4.2-.7.1-.2-.1-.5-.2-.7-.3-.2-.1-.4-.2-.6-.4l-.3-.3c-.1-.1-.2-.3-.3-.4-.1-.2-.1-.4-.2-.7-.1-.3-.1-.6-.2-1-.2-1.8-.4-3.7-.6-5.8-.2-2.1-.4-4.2-.5-6.4-.1 1.5-.3 3-.5 4.5zM23.8 22.4c-.9.2-1.7.5-2.4.9-.3 1-.5 1.9-.7 2.7l-.6 2.4c-.1.4-.2.7-.4.7-.1.1-.4 0-.6-.2-.2-.1-.3-.3-.5-.4-.2-.2-.4-.3-.6-.5-.2-.2-.3-.4-.4-.5-.1-.1-.2-.3-.2-.5-.1-.2-.1-.5-.1-.8 0-.3 0-.7.1-1.2.2-1.1.5-2.3.8-3.6.3-1.3.6-2.6 1-4 .3-1.4.7-2.8 1.1-4.2.4-1.4.8-2.8 1.1-4.2.3-1.5.6-2.8 1-4 .4-1.2.7-2.4 1-3.4.2-.5.4-.9.7-1.3.3-.3.7-.4 1.2-.4.9.1 1.6.2 2.2.5.5.4 1 .6 1.5.8.4.2.6.5.7.8.1.4.1.8.1 1.4v5.1c0 2 0 4 .1 6.2 0 2.2.1 4.4.2 6.7s.1 4.5.2 6.5c0 .4 0 .7-.1.9-.1.2-.3.3-.6.3h-.9c-.3 0-.6-.1-.9-.4-.3-.2-.5-.4-.6-.7-.1-.3-.2-.8-.3-1.4-.1-.7-.1-1.5-.2-2.3-.1-.8-.1-1.7-.1-2.7-1 .3-1.9.5-2.8.8zm.8-6c.5-.1 1.1-.2 1.6-.3 0-1.8-.1-3.5-.1-5.2 0-1.7-.1-3.4-.1-5-.4 1.5-.9 3.2-1.5 5-.5 1.9-1.1 3.9-1.6 5.9.7-.1 1.2-.3 1.7-.4zM37.4 22.4c-.9.2-1.7.5-2.4.9-.3 1-.5 1.9-.7 2.7l-.6 2.4c-.1.4-.2.7-.4.7-.1.1-.4 0-.6-.2-.2-.1-.3-.3-.5-.4-.2-.2-.4-.3-.6-.5-.2-.2-.3-.4-.4-.5-.1-.1-.2-.3-.2-.5-.1-.2-.1-.5-.1-.8 0-.3 0-.7.1-1.2.2-1.1.5-2.3.8-3.6.3-1.3.6-2.6 1-4 .3-1.4.7-2.8 1.1-4.2.4-1.4.8-2.8 1.1-4.2.3-1.5.7-2.8 1-4 .4-1.2.7-2.4 1-3.4.2-.5.4-.9.7-1.3.3-.2.7-.4 1.2-.3.9.1 1.6.2 2.2.5.5.2 1.1.5 1.6.7.4.2.6.5.7.8.1.4.1.8.1 1.4v5.1c0 2 0 4 .1 6.2 0 2.2.1 4.4.2 6.7s.1 4.5.2 6.5c0 .4 0 .7-.1.9-.1.2-.3.3-.6.3h-.9c-.3 0-.6-.1-.9-.4-.3-.2-.5-.4-.6-.7-.1-.3-.2-.8-.3-1.4-.1-.7-.1-1.5-.2-2.3-.1-.8-.1-1.7-.1-2.7-1.1.3-2 .5-2.9.8zm.9-6c.5-.1 1.1-.2 1.6-.3 0-1.8-.1-3.5-.1-5.2 0-1.7-.1-3.4-.1-5-.4 1.5-.9 3.2-1.5 5-.5 1.9-1.1 3.9-1.6 5.9.6-.1 1.1-.3 1.7-.4zM54 8.7c.3-2.6.6-5 .9-7.1.1-.5.2-.9.4-1 .2-.1.4-.1.8 0 .2.1.3.1.5.2.1.1.2.2.4.2.1.1.3.2.4.3l.5.5c.3.4.5.7.6 1.1.1.4 0 .8 0 1.3-.1 1-.3 2.1-.4 3.4-.2 1.2-.3 2.5-.5 3.9s-.3 2.8-.5 4.2c-.2 1.4-.3 2.9-.5 4.3s-.3 2.8-.4 4.1c-.1 1.3-.3 2.6-.4 3.7-.1.9-.4 1.3-1.1 1-.3-.1-.6-.3-.9-.4-.3-.2-.6-.3-.9-.6-.6-.4-.9-1.1-1.2-2.2-.2-.7-.3-1.6-.5-2.6s-.4-2-.5-3.1c-.2-1.1-.3-2.2-.5-3.4-.2-1.2-.3-2.3-.5-3.5-.2 1.4-.3 2.8-.5 4.2-.2 1.4-.3 2.8-.5 4.1-.1 1.3-.3 2.5-.4 3.7-.1 1.2-.2 2.2-.3 3.1 0 .4-.1.7-.2.8-.1.1-.3.1-.7-.1-.3-.2-.6-.3-.9-.5-.3-.2-.6-.4-.9-.8-.3-.3-.4-.6-.5-.9-.1-.4-.1-.8 0-1.5 0-.6.1-1.5.2-2.6s.2-2.4.3-3.8c.1-1.4.3-2.9.4-4.5.2-1.6.3-3.1.5-4.7.2-1.5.3-3 .5-4.4.2-1.4.3-2.6.5-3.6.1-.6.2-1 .5-1.1.2-.1.5-.1.8 0l1.2.6c.4.2.8.5 1.2.9.3.2.6.6.7.9.1.4.3.9.3 1.7.1.8.2 1.5.3 2.5.1.9.2 1.9.3 3 .1 1.1.3 2.2.4 3.4.1 1.2.3 2.3.4 3.4.2-2.8.4-5.5.7-8.1z"/>
  </g>
</svg>
