<svg xmlns="http://www.w3.org/2000/svg" viewBox="0 0 37.3 28.8">
  <g fill="#0C7584">
    <path d="M5.7 6.3c-.4 0-.8.2-1.2.3-.3.1-.6.1-.8 0-.3-.1-.5-.4-.7-.8-.1-.2-.2-.4-.3-.7 0-.2-.1-.5-.2-.7-.1-.3-.2-.6-.2-.8-.1-.3-.2-.5-.2-.8-.1-.4-.1-.7-.1-.9.1-.1.2-.3.4-.4.5-.2 1.1-.4 1.7-.5C4.7.8 5.4.7 6 .5 6.7.4 7.3.3 8 .2 8.7.1 9.3.1 9.9 0c.3 0 .6.1.7.2.2.2.3.5.4.9.1.5.3 1 .3 1.4.1.4.1.8.2 1.1.1.4.1.8.1 1.2 0 .4-.1.8-.3 1.3-1.1 2.6-2.3 5.3-3.5 8.1-1.2 2.8-2.4 5.6-3.5 8.4.4-.2.9-.4 1.3-.5.4-.1.9-.2 1.4-.4.7-.2 1.1.2 1.4 1 .1.4.3.9.4 1.3.1.4.2.8.3 1.3.1.5.1.8 0 1-.1.2-.3.3-.6.4-.8.3-1.6.6-2.5.9-.9.3-1.7.6-2.5 1-.5.2-.9.3-1.1.2-.2-.1-.5-.3-.7-.6l-.6-.9c-.1-.3-.3-.7-.5-1.1-.2-.4-.3-.7-.5-1.2-.1-.4-.1-.9.1-1.5.3-1 .7-2.1 1.2-3.5s1.1-2.9 1.7-4.5c.6-1.6 1.3-3.2 1.9-4.9.7-1.7 1.3-3.2 2-4.7-.5.1-.9.3-1.3.4zM22.5 4c.2.7.4 1.4.5 2.3.2 1.5.2 3.2.2 5 0 1.8-.1 3.7-.4 5.5-.2 1.9-.6 3.6-1 5.4-.4 1.7-1 3.2-1.7 4.4-.5.7-1 1.2-1.6 1.5-.6.3-1.2.3-1.9.2-.5-.1-.9-.2-1.4-.4-.5-.2-.9-.5-1.4-1-.3-.4-.6-.8-1-1.3-.3-.5-.6-1.1-.7-1.8-.3-1.1-.4-2.2-.5-3.5-.1-1.3-.1-2.6-.1-4s.2-2.8.4-4.2c.2-1.4.5-2.7.8-4 .3-1.3.7-2.5 1.2-3.7.5-1.1 1-2.2 1.6-3 .4-.5.8-.9 1.4-1.2.5-.3 1-.3 1.5-.2.6.1 1.2.4 1.8.8.6.4 1 .8 1.4 1.3.3.6.6 1.2.9 1.9zm-4.4 1.6c-.3.5-.6 1.2-.9 2-.3.8-.6 1.8-.8 2.9-.3 1.1-.5 2.1-.6 3.1-.2 1-.3 2.1-.4 3.2-.1 1.1-.1 2.2-.1 3.2s.1 1.8.2 2.5.3 1.1.6 1.3c.2.2.5.1.8-.3.3-.4.6-.9.8-1.7.3-.8.5-1.7.8-2.8.2-1.1.4-2.3.6-3.6.1-1 .3-2.1.3-3.3.1-1.2.1-2.3.1-3.3s-.1-1.9-.2-2.6c-.1-.7-.3-1.1-.5-1.2-.1-.1-.4.1-.7.6zM32.9 8.3c.3-2.6.6-4.9.9-7 .1-.5.2-.9.4-1 .2-.1.4-.1.8 0 .2.1.3.1.4.2.1.1.3.1.4.2.1.1.3.2.4.3l.5.5c.3.4.5.7.6 1.1.1.3 0 .8 0 1.3-.1 1-.3 2.1-.4 3.3-.1 1.2-.3 2.5-.5 3.8-.2 1.4-.3 2.7-.5 4.2-.1 1.4-.3 2.8-.4 4.2-.1 1.4-.3 2.7-.4 4-.1 1.3-.3 2.5-.4 3.6-.1.9-.4 1.2-1.1 1-.3-.1-.6-.2-.9-.4-.3-.2-.6-.3-.9-.5-.5-.4-.9-1.1-1.1-2.2-.2-.7-.3-1.6-.5-2.5-.2-1-.4-2-.5-3-.2-1.1-.3-2.2-.5-3.3-.2-1.1-.3-2.3-.5-3.4-.1 1.4-.3 2.7-.5 4.1-.2 1.4-.3 2.7-.4 4-.1 1.3-.3 2.5-.4 3.6-.1 1.1-.2 2.1-.3 3 0 .4-.1.7-.2.8-.1.1-.3.1-.7-.1-.3-.2-.6-.3-.9-.4-.3-.1-.6-.4-.9-.8-.3-.3-.4-.6-.5-.9-.1-.3-.1-.8 0-1.5 0-.6.1-1.5.2-2.6s.2-2.3.3-3.7c.1-1.4.3-2.8.4-4.4.2-1.5.3-3.1.5-4.6.2-1.5.3-2.9.5-4.3s.3-2.5.5-3.6c.1-.6.2-.9.4-1.1.2-.1.5-.1.8 0l1.2.6c.4.2.8.5 1.2.8.3.2.6.6.7.9.1.4.2.9.3 1.7.1.6.1 1.3.2 2.2.1.9.2 1.9.3 3 .1 1.1.2 2.2.4 3.4.1 1.2.3 2.3.4 3.4.2-2.7.4-5.4.7-7.9z"/>
  </g>
</svg>
