<svg xmlns="http://www.w3.org/2000/svg" viewBox="0 0 77.2 28.9">
  <g fill="#F6851F">
    <path d="M3.1 1.1C3.7.8 4.3.5 4.9.3 5.5.1 6.2.1 6.8.1c.7.1 1.3.3 1.9.7.6.4 1.2 1 1.8 1.8.5.8 1 1.8 1.4 3.1.4 1.1.6 2.3.7 3.7.1 1.4.1 2.8 0 4.2-.1 1.5-.4 2.9-.8 4.4-.4 1.5-.9 2.9-1.6 4.2-.7 1.3-1.5 2.5-2.4 3.6-1 1.1-2 2-3.3 2.6-.7.5-1.3.4-2-.3-.4-.4-.7-.7-.9-1-.3-.3-.5-.7-.9-1.2l-.3-.6c-.1-.2-.2-.4-.3-.7-.1-.3-.1-.6-.1-1s0-.8.1-1.4L1.6 2.3c.4-.5.9-.8 1.5-1.2zM6 20.2c.7-1 1.2-2.1 1.6-3.2.4-1.1.7-2.2.9-3.4.2-1.1.3-2.1.3-3 0-.7 0-1.2-.1-1.7.1-.5 0-.9-.1-1.2-.1-.4-.3-.7-.4-1-.2-.2-.4-.4-.7-.6-.2-.1-.5-.2-.8-.2-.3 0-.6.1-1 .3-.4 2.7-.8 5.4-1.1 8.1-.3 2.8-.7 5.6-1 8.6.9-.7 1.7-1.6 2.4-2.7zM24.9 4.2c.2.7.4 1.4.5 2.3.2 1.5.2 3.2.2 5 0 1.8-.1 3.7-.4 5.5-.2 1.9-.6 3.6-1 5.4-.4 1.7-1 3.2-1.7 4.4-.5.7-1 1.3-1.6 1.5-.6.3-1.2.3-1.9.2-.5-.1-.9-.2-1.4-.4-.5-.2-.9-.5-1.4-1-.3-.4-.6-.8-1-1.3-.3-.5-.6-1.1-.7-1.8-.3-1.1-.4-2.2-.5-3.5-.1-1.3-.1-2.6-.1-4s.2-2.8.4-4.2c.2-1.4.5-2.7.8-4 .3-1.3.7-2.5 1.2-3.7.5-1.1 1-2.2 1.6-3 .4-.5.8-.9 1.4-1.2.5-.3 1-.3 1.5-.2.6.1 1.2.4 1.8.8.6.4 1 .8 1.4 1.3.3.6.6 1.2.9 1.9zm-4.4 1.6c-.3.5-.6 1.2-.9 2-.3.8-.6 1.8-.8 2.9-.3 1.1-.5 2.1-.6 3.1-.2 1-.3 2.1-.4 3.2-.1 1.1-.1 2.2-.1 3.2s.1 1.8.2 2.5.3 1.1.6 1.3c.2.2.5.1.8-.3.3-.4.6-.9.8-1.7.3-.8.5-1.7.8-2.8.2-1.1.4-2.3.6-3.6.1-1 .3-2.1.3-3.3.1-1.2.1-2.3.1-3.3s-.1-1.9-.2-2.6c-.1-.7-.3-1.1-.5-1.2-.1-.1-.4.1-.7.6zM35.3 8.5c.3-2.6.6-4.9.9-7 .1-.5.2-.9.4-1 .2-.1.4-.1.8 0 .2.1.3.1.4.2.1.1.3.1.4.2.1.1.3.2.4.3l.5.5c.3.4.5.7.6 1.1.1.3 0 .8 0 1.3-.1 1-.3 2.1-.4 3.3-.1 1.2-.3 2.5-.5 3.9s-.3 2.7-.5 4.2c-.1 1.4-.3 2.8-.4 4.2-.1 1.4-.3 2.7-.4 4-.1 1.3-.3 2.5-.4 3.6-.1.9-.4 1.2-1.1 1-.3-.1-.6-.2-.9-.4-.3-.2-.6-.3-.9-.5-.5-.4-.9-1.1-1.1-2.2-.2-.7-.3-1.6-.5-2.5-.2-1-.4-2-.5-3-.2-1.1-.3-2.2-.5-3.3-.2-1.1-.3-2.3-.5-3.4-.1 1.4-.3 2.7-.5 4.1-.2 1.4-.3 2.7-.4 4-.1 1.3-.3 2.5-.4 3.6-.1 1.1-.2 2.1-.3 3 0 .4-.1.7-.2.8-.1.1-.3.1-.7-.1-.3-.2-.6-.3-.9-.4-.3-.1-.6-.4-.9-.8-.3-.3-.4-.6-.5-.9-.1-.3-.1-.8 0-1.5 0-.6.1-1.5.2-2.6s.2-2.3.3-3.7c.1-1.4.3-2.8.4-4.4.2-1.5.3-3.1.5-4.6.2-1.5.3-2.9.5-4.3s.3-2.5.5-3.6c.1-.6.2-.9.4-1.1.2-.1.5-.1.8 0l1.2.6c.4.2.8.5 1.2.8.3.2.6.6.7.9.1.4.2.9.3 1.7.1.6.1 1.3.2 2.2.1.9.2 1.9.3 3 .1 1.1.2 2.2.4 3.4.1 1.2.3 2.3.4 3.4.2-2.8.4-5.5.7-8zM42.9 1.1c.6-.3 1.2-.6 1.8-.8.6-.2 1.3-.2 1.9-.2.7.1 1.3.3 1.9.7.6.4 1.2 1 1.8 1.8.5.8 1 1.8 1.4 3.1.4 1.1.6 2.3.7 3.7.1 1.4.1 2.8 0 4.2-.1 1.5-.4 2.9-.8 4.4-.4 1.5-.9 2.9-1.6 4.2-.7 1.3-1.5 2.5-2.4 3.6-1 1.1-2 2-3.3 2.6-.7.5-1.3.4-2-.3-.4-.4-.7-.7-.9-1-.3-.3-.5-.7-.9-1.2l-.3-.6c-.2-.1-.2-.3-.3-.6-.1-.3-.1-.6-.1-1s0-.8.1-1.4l1.6-20.1c.3-.4.8-.7 1.4-1.1zm2.8 19.1c.7-1 1.2-2.1 1.6-3.2.4-1.1.7-2.2.9-3.4.2-1.1.3-2.1.3-3 0-.7 0-1.2-.1-1.7s-.1-.9-.2-1.2c-.1-.3-.3-.6-.4-.9-.2-.3-.4-.5-.6-.6-.2-.2-.4-.3-.8-.3-.3 0-.6.1-1 .3-.4 2.7-.8 5.4-1.1 8.1-.3 2.8-.7 5.6-1 8.6 1-.7 1.8-1.6 2.4-2.7zM56.9 1.5l1.8-.6c.6-.2 1.3-.4 1.9-.5.7-.1 1.3-.2 2-.3.6 0 1 .4 1.2 1.2.1.5.3.9.3 1.2.1.4.1.8.2 1.2.1.5 0 .8 0 1-.1.3-.3.4-.6.5-.7.1-1.3.3-2.1.4-.7.1-1.5.3-2.3.5-.1.9-.3 1.8-.4 2.8-.1 1-.3 2-.5 3.1.4-.1.7-.2 1-.2.3 0 .7-.1 1.1-.1.3 0 .6 0 .8.1.2.1.3.4.5.8.1.4.3.8.4 1.3.1.4.2.8.2 1.3.1.5.1.8 0 1-.1.2-.3.3-.6.4-.7.2-1.4.5-2.2.7-.7.2-1.5.5-2.1.8-.1.7-.2 1.4-.3 2-.1.7-.2 1.3-.3 2 .6-.2 1.1-.4 1.6-.5.5-.1 1.1-.2 1.7-.3.3-.1.6 0 .8.1.2.1.4.4.5.9.1.4.3.9.4 1.3.1.4.2.8.3 1.3.1.5.1.8 0 1-.1.2-.3.3-.6.5l-2.4.9-2.4.9c-.5.2-.9.3-1.1.2-.3-.1-.5-.3-.7-.6-.2-.3-.4-.5-.6-.8-.2-.3-.4-.6-.6-1.1-.2-.4-.4-.8-.5-1.2-.1-.4-.1-1-.1-1.7l2.1-21c.6-.1 1.1-.3 1.6-.5zM67.9 23.7c-.2 1.3-.3 2.6-.5 4-.1.4-.1.6-.3.8-.1.1-.3.1-.6 0s-.6-.3-.9-.4c-.3-.1-.5-.3-.7-.5-.2-.3-.4-.6-.4-1-.1-.4-.1-.9-.1-1.5 0-.5.1-1.2.2-2.1.1-.9.1-1.9.2-3s.2-2.3.3-3.5c.1-1.2.2-2.5.3-3.7.1-1.2.2-2.4.4-3.6.1-1.1.3-2.2.4-3.1.1-.9.3-1.7.4-2.3.1-.6.3-1 .4-1.1.7-.5 1.4-1.1 2.1-1.6.7-.5 1.5-.9 2.2-1.1.7-.2 1.4-.2 2-.1.6.2 1.2.7 1.7 1.5.4.7.8 1.5 1.1 2.3.3.8.6 1.9.8 3.1.1.7.1 1.3.1 1.8s-.1 1-.2 1.5c-.4 1.5-1 2.8-1.9 4.1-.9 1.3-2 2.4-3.3 3.5.3.6.6 1.2.9 1.9.3.7.7 1.4 1 2 .4.7.7 1.3 1.1 1.9.4.6.7 1.2 1 1.7.3.4.4.8.4 1 0 .2-.1.5-.3.7-.2.4-.4.6-.5.6-.2.1-.4.1-.6.2-.3.2-.6.2-.9.1-.3-.1-.7-.3-1.1-.9-.3-.4-.6-.9-1-1.5s-.8-1.2-1.1-1.9l-1.2-2.1c-.4-.7-.7-1.5-1-2.2-.1 1.9-.3 3.2-.4 4.5zM69.8 10c-.2 1.2-.4 2.5-.6 3.9.8-.5 1.5-1.1 2.1-1.8.6-.7 1.1-1.4 1.5-2.1.4-.7.7-1.4.9-2 .2-.6.2-1.1.2-1.4-.1-.6-.6-.8-1.2-.8-.3 0-.7.1-1.1.2-.4.1-.8.4-1.2.8-.2.9-.4 2-.6 3.2z"/>
  </g>
</svg>
