<?xml version="1.0" encoding="UTF-8" standalone="no"?>
<svg width="44px" height="30px" viewBox="0 0 44 30" version="1.1" xmlns="http://www.w3.org/2000/svg" xmlns:xlink="http://www.w3.org/1999/xlink">
    <!-- Generator: Sketch 40.3 (33839) - http://www.bohemiancoding.com/sketch -->
    <title>Page 1</title>
    <desc>Created with Sketch.</desc>
    <defs>
        <polygon id="path-1" points="12.6843093 29 0 29 0 0.2864 12.6843093 0.2864"></polygon>
    </defs>
    <g id="Page-1" stroke="none" stroke-width="1" fill="none" fill-rule="evenodd">
        <g>
            <path d="M5.985,20.3134 C6.647,19.2774 7.189,18.1954 7.609,17.0654 C8.029,15.9364 8.341,14.8164 8.547,13.7054 C8.752,12.5954 8.864,11.5824 8.883,10.6674 C8.901,10.0144 8.883,9.4494 8.827,8.9734 C8.771,8.4974 8.696,8.0914 8.603,7.7554 C8.491,7.4194 8.346,7.1164 8.169,6.8454 C7.991,6.5754 7.777,6.3694 7.525,6.2294 C7.273,6.0894 6.993,6.0244 6.685,6.0334 C6.377,6.0434 6.045,6.1504 5.691,6.3554 C5.28,9.0254 4.902,11.7364 4.557,14.4894 C4.211,17.2434 3.88,20.0944 3.563,23.0434 C4.515,22.2594 5.322,21.3494 5.985,20.3134 M3.101,1.2314 C3.67,0.8954 4.267,0.6434 4.893,0.4754 C5.518,0.3074 6.162,0.2514 6.825,0.3074 C7.487,0.3634 8.131,0.5834 8.757,0.9654 C9.382,1.3484 9.965,1.9314 10.507,2.7154 C11.048,3.4994 11.515,4.5354 11.907,5.8234 C12.261,6.9254 12.495,8.1574 12.607,9.5194 C12.719,10.8824 12.709,12.2964 12.579,13.7614 C12.448,15.2274 12.182,16.7014 11.781,18.1854 C11.379,19.6694 10.847,21.0794 10.185,22.4134 C9.522,23.7484 8.715,24.9614 7.763,26.0534 C6.811,27.1454 5.719,28.0274 4.487,28.6994 C3.833,29.1854 3.171,29.0824 2.499,28.3914 C2.144,28.0374 1.841,27.7014 1.589,27.3834 C1.337,27.0664 1.052,26.6554 0.735,26.1514 C0.623,25.9274 0.511,25.7174 0.399,25.5214 C0.287,25.3254 0.198,25.0924 0.133,24.8214 C0.068,24.5514 0.025,24.2294 0.007,23.8554 C-0.012,23.4824 0.007,23.0064 0.063,22.4274 L1.631,2.3514 C2.041,1.9414 2.531,1.5674 3.101,1.2314" id="Fill-1" fill="#1A9DD8"></path>
            <path d="M19.4249,3.4914 C19.4899,3.7624 19.4849,4.1494 19.4109,4.6534 C19.2609,5.5494 19.1029,6.6044 18.9349,7.8174 C18.7669,9.0314 18.5939,10.3234 18.4169,11.6954 C18.2389,13.0674 18.0619,14.4954 17.8849,15.9794 C17.7069,17.4634 17.5349,18.9194 17.3669,20.3474 C17.1989,21.7754 17.0449,23.1524 16.9049,24.4774 C16.7649,25.8034 16.6389,26.9974 16.5269,28.0614 C16.4709,28.4904 16.3869,28.7654 16.2749,28.8874 C16.1629,29.0084 15.9479,28.9944 15.6309,28.8454 C15.3129,28.6774 15.0049,28.5044 14.7069,28.3274 C14.4079,28.1504 14.1289,27.9304 13.8669,27.6694 C13.5869,27.3894 13.4049,27.0814 13.3209,26.7454 C13.2369,26.4094 13.2139,25.9144 13.2509,25.2614 C13.2879,24.4404 13.3539,23.4134 13.4469,22.1814 C13.5399,20.9494 13.6519,19.6194 13.7829,18.1914 C13.9139,16.7634 14.0529,15.2754 14.2029,13.7254 C14.3519,12.1764 14.5059,10.6734 14.6649,9.2174 C14.8229,7.7614 14.9819,6.3944 15.1409,5.1154 C15.2989,3.8374 15.4439,2.7404 15.5749,1.8254 C15.6679,1.2844 15.7989,0.9574 15.9669,0.8454 C16.1349,0.7334 16.3869,0.7524 16.7229,0.9014 C17.0589,1.0514 17.4229,1.2754 17.8149,1.5734 C18.2069,1.8724 18.5519,2.1994 18.8509,2.5534 C19.1679,2.9084 19.3589,3.2214 19.4249,3.4914" id="Fill-4" fill="#1A9DD8"></path>
            <path d="M28.1886,8.7975 C28.4966,6.2215 28.7906,3.8975 29.0706,1.8255 C29.1446,1.2845 29.2706,0.9475 29.4486,0.8175 C29.6256,0.6875 29.8826,0.6955 30.2186,0.8455 C30.3866,0.9205 30.5356,0.9855 30.6666,1.0415 C30.7966,1.0975 30.9276,1.1715 31.0586,1.2655 C31.1886,1.3585 31.3246,1.4705 31.4646,1.6015 C31.6046,1.7325 31.7766,1.9005 31.9826,2.1055 C32.2996,2.4605 32.4866,2.8105 32.5426,3.1555 C32.5986,3.5015 32.5886,3.9345 32.5146,4.4575 C32.3836,5.4465 32.2436,6.5485 32.0946,7.7615 C31.9446,8.9745 31.7906,10.2575 31.6326,11.6115 C31.4736,12.9645 31.3196,14.3505 31.1706,15.7695 C31.0206,17.1885 30.8716,18.5925 30.7226,19.9835 C30.5726,21.3745 30.4326,22.7225 30.3026,24.0295 C30.1716,25.3365 30.0506,26.5495 29.9386,27.6695 C29.8826,28.5835 29.5186,28.9015 28.8466,28.6215 C28.5476,28.5095 28.2536,28.3735 27.9646,28.2155 C27.6746,28.0565 27.3806,27.8755 27.0826,27.6695 C26.5406,27.2775 26.1586,26.5495 25.9346,25.4855 C25.7666,24.7575 25.5936,23.9175 25.4166,22.9655 C25.2386,22.0135 25.0666,21.0015 24.8986,19.9275 C24.7306,18.8545 24.5626,17.7435 24.3946,16.5955 C24.2266,15.4475 24.0676,14.3135 23.9186,13.1935 C23.7686,14.5565 23.6146,15.9325 23.4566,17.3235 C23.2976,18.7145 23.1486,20.0535 23.0086,21.3415 C22.8686,22.6295 22.7376,23.8425 22.6166,24.9815 C22.4946,26.1205 22.3966,27.1285 22.3226,28.0055 C22.2846,28.4345 22.2056,28.6955 22.0846,28.7895 C21.9626,28.8825 21.7436,28.8455 21.4266,28.6775 C21.1276,28.5275 20.8246,28.3785 20.5166,28.2295 C20.2086,28.0805 19.9236,27.8285 19.6626,27.4735 C19.4016,27.2125 19.2286,26.9085 19.1446,26.5635 C19.0606,26.2175 19.0466,25.7285 19.1026,25.0935 C19.1406,24.4595 19.2056,23.5915 19.2986,22.4895 C19.3926,21.3885 19.4996,20.1475 19.6206,18.7655 C19.7426,17.3835 19.8816,15.9195 20.0406,14.3695 C20.1986,12.8195 20.3576,11.2895 20.5166,9.7775 C20.6746,8.2655 20.8386,6.8285 21.0066,5.4655 C21.1746,4.1025 21.3326,2.9175 21.4826,1.9095 C21.5756,1.3305 21.7246,0.9715 21.9306,0.8315 C22.1356,0.6915 22.3966,0.6955 22.7146,0.8455 C23.1066,1.0505 23.4936,1.2555 23.8766,1.4615 C24.2586,1.6675 24.6556,1.9465 25.0666,2.3015 C25.4026,2.5445 25.6406,2.8525 25.7806,3.2255 C25.9206,3.5985 26.0276,4.1495 26.1026,4.8775 C26.1586,5.4375 26.2326,6.1755 26.3266,7.0895 C26.4196,8.0045 26.5266,9.0035 26.6486,10.0855 C26.7696,11.1685 26.8956,12.2975 27.0266,13.4735 C27.1566,14.6495 27.2876,15.7785 27.4186,16.8615 C27.6236,14.0615 27.8806,11.3735 28.1886,8.7975" id="Fill-6" fill="#1A9DD8"></path>
            <path d="M33.3678,20.7672 C33.8808,20.8332 34.3148,21.0802 34.6698,21.5092 C35.6778,22.7042 36.5598,23.4792 37.3158,23.8332 C38.0718,24.1882 38.6178,24.1042 38.9538,23.5812 C39.1598,23.3202 39.1308,22.9562 38.8698,22.4892 C38.6088,22.0232 38.2398,21.4952 37.7638,20.9072 C37.2878,20.3192 36.7608,19.6842 36.1818,19.0032 C35.6028,18.3222 35.0988,17.6452 34.6698,16.9732 C34.0348,16.0212 33.5778,14.8452 33.2978,13.4452 C33.0178,12.0452 33.0458,10.5152 33.3818,8.8532 C33.4938,8.1632 33.6758,7.4342 33.9278,6.6692 C34.1798,5.9042 34.4738,5.1672 34.8098,4.4572 C35.1458,3.7482 35.5098,3.0812 35.9018,2.4552 C36.2938,1.8302 36.6858,1.3122 37.0778,0.9012 C37.2078,0.7332 37.3768,0.5752 37.5818,0.4252 C37.7868,0.2762 38.0158,0.1642 38.2678,0.0892 C38.5198,0.0152 38.7948,-0.0128 39.0938,0.0052 C39.3918,0.0242 39.7008,0.1172 40.0178,0.2852 C40.5028,0.5842 40.9978,0.9532 41.5018,1.3912 C42.0058,1.8302 42.4258,2.3112 42.7618,2.8332 C43.2278,3.5432 43.5038,4.2522 43.5878,4.9612 C43.6718,5.6712 43.7228,6.3242 43.7418,6.9212 C43.7228,7.4632 43.6808,8.0602 43.6158,8.7132 C43.5508,9.3672 43.4758,10.0292 43.3918,10.7012 C43.3078,11.3732 43.2148,12.0222 43.1118,12.6472 C43.0098,13.2732 42.9018,13.8192 42.7898,14.2852 C42.6778,14.7152 42.5468,14.9852 42.3978,15.0972 C42.2478,15.2092 42.0338,15.1632 41.7538,14.9572 C40.1488,13.9492 39.4018,12.5682 39.5138,10.8132 C39.5328,10.4772 39.5698,10.0812 39.6258,9.6232 C39.6818,9.1662 39.7378,8.7092 39.7938,8.2512 C39.8498,7.7942 39.8958,7.3602 39.9338,6.9492 C39.9718,6.5382 39.9808,6.2072 39.9618,5.9552 C39.9428,5.7032 39.8878,5.5542 39.7938,5.5072 C39.7008,5.4612 39.5518,5.5682 39.3458,5.8292 C39.0658,6.0912 38.7528,6.5532 38.4078,7.2152 C38.0618,7.8782 37.7778,8.6152 37.5538,9.4272 C37.3298,10.2392 37.2078,11.0702 37.1898,11.9192 C37.1708,12.7682 37.3578,13.5202 37.7498,14.1732 C38.2538,15.0512 38.8468,15.8672 39.5278,16.6232 C40.2088,17.3792 40.8258,18.1312 41.3758,18.8772 C41.9268,19.6242 42.3468,20.4082 42.6358,21.2292 C42.9248,22.0512 42.9388,22.9752 42.6778,24.0012 C42.5658,24.5052 42.4028,25.0422 42.1878,25.6112 C41.9728,26.1812 41.6878,26.7132 41.3338,27.2072 C40.9788,27.7022 40.5358,28.1222 40.0038,28.4672 C39.4718,28.8132 38.8318,28.9942 38.0858,29.0132 C37.0778,29.0692 36.1068,28.7292 35.1738,27.9912 C34.2408,27.2542 33.2978,25.9802 32.3458,24.1692 C31.8418,23.2732 31.5898,22.6202 31.5898,22.2092 C31.5898,21.7802 31.7118,21.4442 31.9538,21.2012 C32.3838,20.8472 32.8548,20.7022 33.3678,20.7672" id="Fill-8" fill="#1A9DD8"></path>
        </g>
    </g>
</svg>
